<svg width="217" height="217" viewBox="0 0 217 217" fill="none" xmlns="http://www.w3.org/2000/svg">
<circle cx="108.5" cy="108.5" r="108.5" fill="#009688"/>
<path d="M180.634 102.25L127.186 48.8004C125.661 47.2747 123.627 46.4373 121.459 46.4373C119.288 46.4373 117.256 47.2759 115.73 48.8004L110.878 53.6543C109.353 55.1776 108.513 57.2123 108.513 59.3817C108.513 61.55 109.353 63.6532 110.878 65.1765L142.058 96.426H42.9955C38.5291 96.426 35 99.9226 35 104.39V111.252C35 115.72 38.5291 119.569 42.9955 119.569H142.412L110.879 150.993C109.354 152.519 108.514 154.498 108.514 156.667C108.514 158.835 109.354 160.843 110.879 162.367L115.732 167.205C117.257 168.731 119.29 169.563 121.46 169.563C123.628 169.563 125.662 168.72 127.188 167.195L180.636 113.747C182.165 112.216 183.006 110.173 183 108.001C183.005 105.822 182.165 103.778 180.634 102.25Z" fill="white"/>
</svg>
